<?xml version="1.0" encoding="utf-8"?>
<!-- Generator: Adobe Illustrator 15.1.0, SVG Export Plug-In . SVG Version: 6.00 Build 0)  -->
<!DOCTYPE svg PUBLIC "-//W3C//DTD SVG 1.1//EN" "http://www.w3.org/Graphics/SVG/1.1/DTD/svg11.dtd">
<svg version="1.1" id="Layer_1" xmlns="http://www.w3.org/2000/svg" xmlns:xlink="http://www.w3.org/1999/xlink" x="0px" y="0px"
	 width="360px" height="50.4px" viewBox="0 0 360 50.4" enable-background="new 0 0 360 50.4" xml:space="preserve">
<g>
	<path fill="#1E2E4F" d="M166.392,45.227c-1.753-0.842-2.493-2.946-1.654-4.699c0.842-1.754,2.946-2.492,4.699-1.65
		c1.752,0.839,2.495,2.943,1.653,4.696C170.248,45.328,168.144,46.066,166.392,45.227"/>
</g>
<g>
	<path fill="#1E2E4F" d="M6.95,45.227c-1.753-0.842-2.493-2.946-1.653-4.699c0.841-1.754,2.945-2.492,4.698-1.65
		c1.753,0.839,2.496,2.943,1.653,4.696C10.807,45.328,8.703,46.066,6.95,45.227"/>
</g>
<g>
	<path fill="#1E2E4F" d="M310.882,45.227c-1.754-0.842-2.492-2.946-1.653-4.699c0.843-1.754,2.943-2.492,4.697-1.65
		c1.755,0.839,2.496,2.943,1.653,4.696C314.737,45.328,312.634,46.066,310.882,45.227"/>
</g>
<g>
	<path fill="#1E2E4F" d="M8.54,43.49c-0.576,0-1.12-0.349-1.337-0.92c-0.283-0.738,0.086-1.566,0.825-1.85L93.708,7.934
		l74.788,32.691h143.459c0.792,0,1.433,0.641,1.433,1.433c0,0.791-0.641,1.432-1.433,1.432H167.897L93.636,11.028L9.051,43.395
		C8.883,43.459,8.71,43.49,8.54,43.49z"/>
</g>
<g>
	<g>
		<g>
			<path fill="#FCFAD0" d="M6.301,5.049h8.086c2.368,0,4.182,0.593,5.441,1.778c1.257,1.186,1.887,2.842,1.887,4.974v6.753
				c0,2.134-0.63,3.788-1.887,4.974c-1.259,1.187-3.073,1.779-5.441,1.779h-3.908v9.861H6.301V5.049z M17.54,12.155
				c0-2.277-1.182-3.42-3.554-3.42h-3.506v12.926h3.506c2.373,0,3.554-1.155,3.554-3.46V12.155z"/>
		</g>
		<g>
			<path fill="#FCFAD0" d="M32.599,23.441v11.727h-4.175V5.049h8.083c2.373,0,4.187,0.593,5.444,1.778
				c1.259,1.186,1.886,2.827,1.886,4.932v4.797c0,3.285-1.257,5.402-3.773,6.351l4.793,12.261h-4.62l-4.309-11.727H32.599z
				 M32.599,8.692v11.235h3.555c1.244,0,2.14-0.276,2.689-0.842c0.545-0.56,0.817-1.421,0.817-2.577v-4.484
				c0-2.223-1.168-3.332-3.507-3.332H32.599z"/>
		</g>
		<g>
			<path fill="#FCFAD0" d="M51.257,5.049h13.726v3.687h-9.55v9.373h8.307v3.688h-8.307v9.729h9.55v3.643H51.257V5.049z"/>
		</g>
		<g>
			<path fill="#FCFAD0" d="M69.822,11.448c0-2.105,0.687-3.731,2.069-4.889c1.373-1.157,3.336-1.732,5.884-1.732
				c2.546,0,4.62,0.265,6.217,0.799v3.999c-1.597-0.623-3.539-0.934-5.82-0.934c-2.754,0-4.128,1.02-4.128,3.066v1.732
				c0,0.945,0.181,1.695,0.553,2.243c0.374,0.546,1.031,1.086,1.978,1.62l5.152,2.884c2.396,1.309,3.596,3.275,3.596,5.911v2.487
				c0,2.162-0.751,3.83-2.262,4.999c-1.512,1.172-3.637,1.754-6.377,1.754c-2.74,0-4.939-0.311-6.594-0.932v-4
				c1.951,0.713,4.012,1.069,6.174,1.069c3.225,0,4.84-1.097,4.84-3.29v-1.507c0-0.89-0.162-1.581-0.488-2.065
				c-0.325-0.492-0.932-0.973-1.821-1.446l-5.018-2.756c-2.639-1.418-3.956-3.533-3.956-6.35V11.448z"/>
		</g>
		<g>
			<path fill="#FCFAD0" d="M104.248,5.049h4.267v30.119h-4.267V22.24h-8.484v12.928h-4.218V5.049h4.218v13.463h8.484V5.049z"/>
		</g>
		<g>
			<path fill="#FCFAD0" d="M116.242,5.049h4.218v30.119h-4.218V5.049z"/>
		</g>
		<g>
			<path fill="#FCFAD0" d="M128.147,5.049h13.324v3.687h-9.105v10.128h8.617v3.732h-8.617v12.572h-4.219V5.049z"/>
		</g>
		<g>
			<path fill="#FCFAD0" d="M160.529,5.049v3.687H154.8v26.433h-4.219V8.735h-5.733V5.049H160.529z"/>
		</g>
	</g>
	<g>
		<g>
			<path fill="#1E2E4F" d="M165.813,5.049h8.084c2.373,0,4.187,0.593,5.443,1.778c1.259,1.186,1.887,2.842,1.887,4.974v6.753
				c0,2.134-0.628,3.788-1.887,4.974c-1.257,1.187-3.071,1.779-5.443,1.779h-3.908v9.861h-4.176V5.049z M177.05,12.155
				c0-2.277-1.182-3.42-3.55-3.42h-3.511v12.926h3.511c2.368,0,3.55-1.155,3.55-3.46V12.155z"/>
		</g>
		<g>
			<path fill="#1E2E4F" d="M187.936,5.049h4.219v26.519h8.794v3.601h-13.013V5.049z"/>
		</g>
		<g>
			<path fill="#1E2E4F" d="M218.809,35.168l-1.645-7.996H209.7l-1.642,7.996h-4.087l6.573-30.119h5.863l6.485,30.119H218.809z
				 M210.411,23.572h5.997l-3.021-14.613L210.411,23.572z"/>
		</g>
		<g>
			<path fill="#1E2E4F" d="M241.46,5.049h4.132v30.119h-4.442c-4.649-11.878-7.685-19.75-9.103-23.634
				c0,0.325,0.059,1.008,0.173,2.045c0.241,2.574,0.358,5.433,0.358,8.571v13.017h-4.09V5.049h4.493
				c4.112,10.424,6.612,16.881,7.502,19.368c0.891,2.487,1.394,3.895,1.511,4.219c0-0.264-0.078-1.575-0.246-3.931
				c-0.162-2.355-0.258-4.626-0.288-6.817V5.049z"/>
		</g>
		<g>
			<path fill="#1E2E4F" d="M266.296,5.049h4.127v30.119h-4.438c-4.654-11.878-7.688-19.75-9.111-23.634
				c0,0.325,0.06,1.008,0.183,2.045c0.234,2.574,0.352,5.433,0.352,8.571v13.017h-4.084V5.049h4.484
				c4.115,10.424,6.622,16.881,7.505,19.368c0.891,2.487,1.394,3.895,1.514,4.219c0-0.264-0.084-1.575-0.243-3.931
				c-0.165-2.355-0.26-4.626-0.288-6.817V5.049z"/>
		</g>
		<g>
			<path fill="#1E2E4F" d="M278.152,5.049h13.726v3.687h-9.55v9.373h8.306v3.688h-8.306v9.729h9.55v3.643h-13.726V5.049z"/>
		</g>
		<g>
			<path fill="#1E2E4F" d="M302.495,23.441v11.727h-4.176V5.049h8.087c2.364,0,4.18,0.593,5.438,1.778
				c1.256,1.186,1.888,2.827,1.888,4.932v4.797c0,3.285-1.261,5.402-3.776,6.351l4.8,12.261h-4.618l-4.311-11.727H302.495z
				 M302.495,8.692v11.235h3.554c1.244,0,2.138-0.276,2.685-0.842c0.552-0.56,0.825-1.421,0.825-2.577v-4.484
				c0-2.223-1.172-3.332-3.51-3.332H302.495z"/>
		</g>
	</g>
</g>
<g opacity="0.5">
	<g>
		<path fill="#1E2E4F" d="M328.135,24.825v1.11c0,1.246-0.481,2.051-1.441,2.415c1.038,0.347,1.558,1.172,1.558,2.47v1.167
			c0,0.923-0.263,1.647-0.788,2.174c-0.526,0.523-1.309,0.786-2.345,0.786h-3.485V21.868h3.368c1.039,0,1.818,0.263,2.344,0.787
			C327.872,23.18,328.135,23.905,328.135,24.825z M324.883,23.074h-1.867v4.688h1.867c1.246,0,1.869-0.596,1.869-1.788v-1.111
			C326.752,23.67,326.129,23.074,324.883,23.074z M326.87,31.947v-1.166c0-1.192-0.624-1.79-1.869-1.79h-1.985v4.75h1.985
			C326.246,33.741,326.87,33.142,326.87,31.947z"/>
	</g>
	<g>
		<path fill="#1E2E4F" d="M331.716,21.868h5.661v1.226h-4.28v4.652h3.735v1.226h-3.735v4.75h4.28v1.225h-5.661V21.868z"/>
	</g>
	<g>
		<path fill="#1E2E4F" d="M345.709,21.868v1.226h-2.532v11.853h-1.398V23.094h-2.532v-1.226H345.709z"/>
	</g>
	<g>
		<path fill="#1E2E4F" d="M353.667,34.946l-0.797-3.659h-3.506l-0.795,3.659h-1.385l2.96-13.078h1.947l2.957,13.078H353.667z
			 M349.619,30.082h2.979l-1.499-6.871L349.619,30.082z"/>
	</g>
</g>
</svg>
